<svg xmlns="http://www.w3.org/2000/svg" xmlns:xlink="http://www.w3.org/1999/xlink" width="500" zoomAndPan="magnify" viewBox="0 0 375 374.999991" height="500" preserveAspectRatio="xMidYMid meet" version="1.0"><defs><g/></defs><g fill="#fff" fill-opacity="1"><g transform="translate(92.459452, 246.116361)"><g><path d="M -26.625 -71.046875 C -25.007812 -72.441406 -23.425781 -73.445312 -21.875 -74.0625 C -20.320312 -74.675781 -18.785156 -75.035156 -17.265625 -75.140625 C -16.191406 -75.179688 -15.035156 -74.953125 -13.796875 -74.453125 C -12.566406 -73.953125 -11.453125 -73.128906 -10.453125 -71.984375 C -9.390625 -70.742188 -8.890625 -69.253906 -8.953125 -67.515625 C -9.015625 -65.773438 -9.785156 -64.269531 -11.265625 -63 C -12.773438 -61.6875 -14.398438 -61.039062 -16.140625 -61.0625 C -17.890625 -61.09375 -19.414062 -61.867188 -20.71875 -63.390625 C -21.75 -64.585938 -22.316406 -65.941406 -22.421875 -67.453125 C -22.535156 -68.972656 -22.082031 -70.484375 -21.0625 -71.984375 C -21.425781 -72.148438 -21.894531 -72.144531 -22.46875 -71.96875 C -23.039062 -71.800781 -23.675781 -71.421875 -24.375 -70.828125 C -25.289062 -70.035156 -25.910156 -69.21875 -26.234375 -68.375 C -26.554688 -67.53125 -26.660156 -66.675781 -26.546875 -65.8125 C -26.460938 -64.695312 -25.945312 -63.40625 -25 -61.9375 C -24.050781 -60.46875 -22.410156 -58.375 -20.078125 -55.65625 L -14.671875 -49.390625 L -7.296875 -55.734375 L -6.109375 -54.34375 L -13.484375 -48 L 9.875 -20.90625 C 11.8125 -18.65625 13.679688 -17.640625 15.484375 -17.859375 C 17.296875 -18.085938 19.210938 -19.070312 21.234375 -20.8125 L 22.484375 -19.375 C 21.242188 -18.394531 19.515625 -17.003906 17.296875 -15.203125 C 15.078125 -13.398438 12.773438 -11.472656 10.390625 -9.421875 C 8.640625 -7.910156 6.953125 -6.398438 5.328125 -4.890625 C 3.710938 -3.390625 2.488281 -2.234375 1.65625 -1.421875 L 0.40625 -2.859375 C 2.019531 -4.253906 2.863281 -5.582031 2.9375 -6.84375 C 3.007812 -8.113281 2.210938 -9.71875 0.546875 -11.65625 L -23.40625 -39.4375 L -28.09375 -35.390625 L -29.28125 -36.78125 L -24.59375 -40.828125 C -26.925781 -43.546875 -28.738281 -45.929688 -30.03125 -47.984375 C -31.320312 -50.035156 -32.203125 -51.976562 -32.671875 -53.8125 C -33.140625 -55.65625 -33.273438 -57.535156 -33.078125 -59.453125 C -32.898438 -61.296875 -32.257812 -63.269531 -31.15625 -65.375 C -30.0625 -67.488281 -28.550781 -69.378906 -26.625 -71.046875 Z M -26.625 -71.046875 "/></g></g></g><g fill="#fff" fill-opacity="1"><g transform="translate(109.623007, 228.940959)"><g><path d="M 1.125 -54.734375 C 5.882812 -57.140625 10.332031 -57.617188 14.46875 -56.171875 C 18.601562 -54.722656 22.285156 -50.804688 25.515625 -44.421875 L -1.21875 -30.921875 L -2.171875 -32.359375 L 14.484375 -40.78125 C 13.191406 -43.457031 11.789062 -45.820312 10.28125 -47.875 C 8.78125 -49.9375 7.28125 -51.441406 5.78125 -52.390625 C 4.28125 -53.335938 2.847656 -53.46875 1.484375 -52.78125 C -0.410156 -51.820312 -1.414062 -49.816406 -1.53125 -46.765625 C -1.65625 -43.710938 -0.457031 -39.351562 2.0625 -33.6875 L 2.546875 -33.3125 C 2.816406 -32.632812 3.113281 -31.9375 3.4375 -31.21875 C 3.769531 -30.5 4.128906 -29.765625 4.515625 -29.015625 C 6.398438 -25.273438 8.460938 -22.503906 10.703125 -20.703125 C 12.941406 -18.898438 15.132812 -17.878906 17.28125 -17.640625 C 19.4375 -17.410156 21.359375 -17.71875 23.046875 -18.5625 C 24.179688 -19.132812 25.269531 -19.90625 26.3125 -20.875 C 27.363281 -21.851562 28.269531 -23.128906 29.03125 -24.703125 C 29.800781 -26.285156 30.285156 -28.210938 30.484375 -30.484375 L 32.203125 -30.75 C 32.597656 -28.363281 32.582031 -25.835938 32.15625 -23.171875 C 31.726562 -20.503906 30.742188 -18 29.203125 -15.65625 C 27.671875 -13.320312 25.390625 -11.390625 22.359375 -9.859375 C 18.671875 -7.992188 15.019531 -7.132812 11.40625 -7.28125 C 7.800781 -7.4375 4.390625 -8.707031 1.171875 -11.09375 C -2.035156 -13.488281 -4.882812 -17.148438 -7.375 -22.078125 C -9.914062 -27.109375 -11.179688 -31.738281 -11.171875 -35.96875 C -11.171875 -40.195312 -10.082031 -43.894531 -7.90625 -47.0625 C -5.738281 -50.226562 -2.726562 -52.785156 1.125 -54.734375 Z M 1.125 -54.734375 "/></g></g></g><g fill="#fff" fill-opacity="1"><g transform="translate(141.651605, 211.258718)"><g><path d="M 16.515625 -52.1875 C 21.765625 -53.15625 26.164062 -52.359375 29.71875 -49.796875 C 33.28125 -47.242188 35.707031 -42.445312 37 -35.40625 L 7.53125 -30 L 7.046875 -31.640625 L 25.390625 -35.015625 C 24.921875 -37.960938 24.25 -40.632812 23.375 -43.03125 C 22.5 -45.4375 21.476562 -47.300781 20.3125 -48.625 C 19.144531 -49.957031 17.8125 -50.488281 16.3125 -50.21875 C 14.226562 -49.832031 12.695312 -48.1875 11.71875 -45.28125 C 10.738281 -42.382812 10.660156 -37.867188 11.484375 -31.734375 L 11.84375 -31.25 C 11.914062 -30.519531 12.003906 -29.757812 12.109375 -28.96875 C 12.222656 -28.1875 12.359375 -27.382812 12.515625 -26.5625 C 13.273438 -22.4375 14.472656 -19.195312 16.109375 -16.84375 C 17.742188 -14.488281 19.5625 -12.890625 21.5625 -12.046875 C 23.5625 -11.210938 25.488281 -10.96875 27.34375 -11.3125 C 28.59375 -11.539062 29.859375 -11.972656 31.140625 -12.609375 C 32.421875 -13.253906 33.648438 -14.222656 34.828125 -15.515625 C 36.015625 -16.816406 37.023438 -18.53125 37.859375 -20.65625 L 39.5625 -20.40625 C 39.257812 -18.007812 38.53125 -15.59375 37.375 -13.15625 C 36.21875 -10.726562 34.570312 -8.601562 32.4375 -6.78125 C 30.3125 -4.96875 27.578125 -3.753906 24.234375 -3.140625 C 20.171875 -2.398438 16.425781 -2.609375 13 -3.765625 C 9.582031 -4.929688 6.664062 -7.113281 4.25 -10.3125 C 1.84375 -13.507812 0.140625 -17.828125 -0.859375 -23.265625 C -1.867188 -28.816406 -1.773438 -33.613281 -0.578125 -37.65625 C 0.617188 -41.707031 2.707031 -44.945312 5.6875 -47.375 C 8.664062 -49.800781 12.273438 -51.40625 16.515625 -52.1875 Z M 16.515625 -52.1875 "/></g></g></g><g fill="#fff" fill-opacity="1"><g transform="translate(179.259136, 204.476687)"><g><path d="M 24.3125 -70.15625 L 21.15625 -7.40625 C 21.03125 -4.863281 21.382812 -3.113281 22.21875 -2.15625 C 23.050781 -1.207031 24.523438 -0.679688 26.640625 -0.578125 L 26.546875 1.328125 C 25.398438 1.210938 23.675781 1.050781 21.375 0.84375 C 19.082031 0.644531 16.753906 0.484375 14.390625 0.359375 C 12.015625 0.242188 9.628906 0.171875 7.234375 0.140625 C 4.835938 0.109375 3.035156 0.09375 1.828125 0.09375 L 1.921875 -1.8125 C 4.035156 -1.707031 5.550781 -2.085938 6.46875 -2.953125 C 7.394531 -3.816406 7.921875 -5.519531 8.046875 -8.0625 L 10.65625 -59.890625 C 10.789062 -62.628906 10.484375 -64.664062 9.734375 -66 C 8.992188 -67.34375 7.503906 -68.070312 5.265625 -68.1875 L 5.359375 -70.09375 C 7.285156 -69.820312 9.15625 -69.640625 10.96875 -69.546875 C 13.457031 -69.421875 15.828125 -69.40625 18.078125 -69.5 C 20.335938 -69.601562 22.414062 -69.820312 24.3125 -70.15625 Z M 24.3125 -70.15625 "/></g></g></g><g fill="#fff" fill-opacity="1"><g transform="translate(201.829317, 205.078083)"><g><path d="M 29.6875 -65.53125 C 32.175781 -64.945312 34.003906 -63.878906 35.171875 -62.328125 C 36.335938 -60.773438 36.671875 -58.929688 36.171875 -56.796875 C 35.671875 -54.671875 34.554688 -53.171875 32.828125 -52.296875 C 31.097656 -51.429688 28.988281 -51.289062 26.5 -51.875 C 24.019531 -52.457031 22.195312 -53.519531 21.03125 -55.0625 C 19.863281 -56.613281 19.53125 -58.453125 20.03125 -60.578125 C 20.53125 -62.710938 21.644531 -64.21875 23.375 -65.09375 C 25.101562 -65.96875 27.207031 -66.113281 29.6875 -65.53125 Z M 31.515625 -42 L 22.5 -3.4375 C 21.925781 -0.945312 21.960938 0.835938 22.609375 1.921875 C 23.253906 3.003906 24.613281 3.785156 26.6875 4.265625 L 26.25 6.125 C 25.195312 5.820312 23.554688 5.363281 21.328125 4.75 C 19.097656 4.144531 16.832031 3.570312 14.53125 3.03125 C 12.226562 2.488281 9.878906 1.984375 7.484375 1.515625 C 5.097656 1.046875 3.3125 0.707031 2.125 0.5 L 2.5625 -1.359375 C 4.632812 -0.878906 6.203125 -0.976562 7.265625 -1.65625 C 8.335938 -2.34375 9.160156 -3.929688 9.734375 -6.421875 L 16.265625 -34.34375 C 16.890625 -37.007812 16.945312 -39.066406 16.4375 -40.515625 C 15.925781 -41.972656 14.578125 -42.957031 12.390625 -43.46875 L 12.828125 -45.34375 C 14.671875 -44.71875 16.484375 -44.195312 18.265625 -43.78125 C 20.742188 -43.195312 23.085938 -42.757812 25.296875 -42.46875 C 27.503906 -42.175781 29.578125 -42.019531 31.515625 -42 Z M 31.515625 -42 "/></g></g></g><g fill="#fff" fill-opacity="1"><g transform="translate(223.960238, 209.479811)"><g><path d="M 52.984375 -54.3125 C 54.921875 -53.445312 56.5 -52.441406 57.71875 -51.296875 C 58.9375 -50.160156 59.914062 -48.921875 60.65625 -47.578125 C 61.15625 -46.628906 61.441406 -45.488281 61.515625 -44.15625 C 61.585938 -42.832031 61.3125 -41.472656 60.6875 -40.078125 C 60.019531 -38.585938 58.882812 -37.5 57.28125 -36.8125 C 55.6875 -36.132812 54.003906 -36.191406 52.234375 -36.984375 C 50.398438 -37.796875 49.125 -39 48.40625 -40.59375 C 47.6875 -42.1875 47.734375 -43.894531 48.546875 -45.71875 C 49.191406 -47.164062 50.175781 -48.253906 51.5 -48.984375 C 52.832031 -49.722656 54.398438 -49.953125 56.203125 -49.671875 C 56.191406 -50.078125 55.984375 -50.503906 55.578125 -50.953125 C 55.179688 -51.398438 54.5625 -51.8125 53.71875 -52.1875 C 52.613281 -52.675781 51.613281 -52.882812 50.71875 -52.8125 C 49.832031 -52.75 49.019531 -52.484375 48.28125 -52.015625 C 47.289062 -51.460938 46.332031 -50.441406 45.40625 -48.953125 C 44.476562 -47.472656 43.285156 -45.097656 41.828125 -41.828125 L 38.453125 -34.265625 L 47.34375 -30.296875 L 46.59375 -28.640625 L 37.703125 -32.609375 L 23.109375 0.0625 C 21.898438 2.769531 21.78125 4.890625 22.75 6.421875 C 23.726562 7.960938 25.441406 9.28125 27.890625 10.375 L 27.109375 12.109375 C 25.679688 11.410156 23.679688 10.4375 21.109375 9.1875 C 18.546875 7.945312 15.820312 6.679688 12.9375 5.390625 C 10.832031 4.453125 8.75 3.570312 6.6875 2.75 C 4.632812 1.925781 3.070312 1.304688 2 0.890625 L 2.78125 -0.84375 C 4.71875 0.0195312 6.269531 0.21875 7.4375 -0.25 C 8.613281 -0.726562 9.722656 -2.132812 10.765625 -4.46875 L 25.734375 -37.96875 L 20.09375 -40.484375 L 20.84375 -42.140625 L 26.484375 -39.625 C 27.941406 -42.894531 29.328125 -45.546875 30.640625 -47.578125 C 31.953125 -49.617188 33.34375 -51.242188 34.8125 -52.453125 C 36.28125 -53.660156 37.921875 -54.585938 39.734375 -55.234375 C 41.472656 -55.859375 43.53125 -56.117188 45.90625 -56.015625 C 48.289062 -55.921875 50.648438 -55.351562 52.984375 -54.3125 Z M 52.984375 -54.3125 "/></g></g></g><g fill="#fff" fill-opacity="1"><g transform="translate(246.74348, 217.53584)"><g><path d="M 65.828125 -8.046875 L 64.703125 -6.609375 C 63.609375 -7.078125 62.304688 -7.1875 60.796875 -6.9375 C 59.285156 -6.695312 57.320312 -5.832031 54.90625 -4.34375 L 22.515625 16.03125 L 15.921875 18.921875 L 28.25 -28.75 C 28.90625 -31.238281 29 -32.992188 28.53125 -34.015625 C 28.0625 -35.046875 27.539062 -35.789062 26.96875 -36.25 L 28.15625 -37.765625 C 29.613281 -36.359375 31.15625 -34.953125 32.78125 -33.546875 C 34.414062 -32.148438 36.023438 -30.832031 37.609375 -29.59375 C 39.566406 -28.050781 41.390625 -26.6875 43.078125 -25.5 C 44.773438 -24.320312 46.378906 -23.21875 47.890625 -22.1875 L 46.703125 -20.671875 C 45.742188 -21.429688 44.800781 -22.078125 43.875 -22.609375 C 42.945312 -23.148438 42.109375 -23.269531 41.359375 -22.96875 C 40.617188 -22.664062 40.007812 -21.625 39.53125 -19.84375 L 31.40625 9 L 30.421875 8.921875 L 47.375 -1.71875 C 50.3125 -3.570312 52.359375 -5.375 53.515625 -7.125 C 54.671875 -8.875 55.125 -10.519531 54.875 -12.0625 C 54.625 -13.613281 53.753906 -15.066406 52.265625 -16.421875 L 53.390625 -17.859375 C 54.109375 -17.203125 54.863281 -16.539062 55.65625 -15.875 C 56.457031 -15.207031 57.25 -14.539062 58.03125 -13.875 C 58.820312 -13.207031 59.53125 -12.628906 60.15625 -12.140625 C 61.101562 -11.390625 62.117188 -10.628906 63.203125 -9.859375 C 64.285156 -9.085938 65.160156 -8.484375 65.828125 -8.046875 Z M 22.515625 16.03125 L 13.75 21.515625 C 12.34375 22.328125 11.054688 22.957031 9.890625 23.40625 C 8.734375 23.851562 7.640625 24.09375 6.609375 24.125 C 5.484375 24.164062 4.273438 23.925781 2.984375 23.40625 C 1.703125 22.882812 0.367188 22.082031 -1.015625 21 C -2.160156 20.09375 -3.191406 18.96875 -4.109375 17.625 C -5.023438 16.289062 -5.546875 14.875 -5.671875 13.375 C -5.804688 11.875 -5.347656 10.457031 -4.296875 9.125 C -3.128906 7.65625 -1.675781 6.890625 0.0625 6.828125 C 1.8125 6.773438 3.539062 7.425781 5.25 8.78125 C 6.820312 10.019531 7.804688 11.414062 8.203125 12.96875 C 8.609375 14.53125 8.226562 16.046875 7.0625 17.515625 C 6.3125 18.472656 5.300781 19.140625 4.03125 19.515625 C 2.757812 19.898438 1.359375 19.84375 -0.171875 19.34375 C 0.0234375 19.570312 0.285156 19.816406 0.609375 20.078125 C 0.941406 20.347656 1.207031 20.554688 1.40625 20.703125 C 2.832031 21.828125 4.445312 22.367188 6.25 22.328125 C 8.0625 22.285156 10.097656 21.570312 12.359375 20.1875 L 20.6875 14.796875 Z M 22.515625 16.03125 "/></g></g></g></svg>